# xmcd
#
# Track frame offsets: 
#        150
#        23447
#        48770
#        63116
#        85856
#        103459
#        125106
#        146985
#        165553
#        186247
#        202368
#        221810
#        245000
#        275345
#        296495
#
# Disc length: 4144 seconds
#
# Revision: 0
# Processed by: cddbd v1.5.2PL0 Copyright (c) Steve Scherf et al.
# Submitted via: ExactAudioCopy v0.99pb5
#
DISCID=ed102e0f
DTITLE=WSNB - Jomo Swamp Root Boogie
DYEAR=2007
DGENRE=Blues
TTITLE0=Rusted
TTITLE1=Riverman
TTITLE2=Pass You By
TTITLE3=3 o'clock
TTITLE4=True Love
TTITLE5=Casglla
TTITLE6=Stir Crazy
TTITLE7=Honeywell
TTITLE8=Mask
TTITLE9=Bangland
TTITLE10=Sink or Swim
TTITLE11=In A Bowl
TTITLE12=Come Back
TTITLE13=Breaking You Down
TTITLE14=Down in Stone
EXTD=
EXTT0=
EXTT1=
EXTT2=
EXTT3=
EXTT4=
EXTT5=
EXTT6=
EXTT7=
EXTT8=
EXTT9=
EXTT10=
EXTT11=
EXTT12=
EXTT13=
EXTT14=
PLAYORDER=
